<svg t="1732021335018" class="icon" viewBox="0 0 1024 1024" version="1.1" xmlns="http://www.w3.org/2000/svg" p-id="8708" width="20000" height="20000"><path d="M531.48668461-25.33176763c-218.94655242 0.41684133-396.29311747 177.99383419-396.29311748 397.0348879 0 204.51892338 166.96695719 419.6504715 360.03827864 651.06860563 10.14659097 12.19196144 23.27191451 18.75138686 36.25483884 19.49704092 12.98292432-0.74565405 26.10824786-7.30507947 36.24966067-19.49704092 193.07261598-231.41813413 360.04086771-446.54838771 360.04086771-651.06860563 0-219.04234825-177.34785959-396.61804658-396.29182293-397.0348879zM531.48668461 497.71735925c-85.53014361-0.4634447-154.77758483-69.84810699-154.77758484-155.47275188s69.24744123-155.00801264 154.77758484-155.47275188c85.52884907 0.4634447 154.77111214 69.84810699 154.77111214 155.47275188s-69.24096853 155.00801264-154.77111214 155.47275188z" fill="#fa9c02" p-id="8709"></path></svg>