<svg t="1730645675631" class="icon" viewBox="0 0 1024 1024" version="1.1" xmlns="http://www.w3.org/2000/svg" p-id="4779" width="20000" height="20000"><path d="M489.472 601.088l-82.944-149.504h-79.872l-30.72-30.72V97.28l30.72-30.72h378.88l30.72 30.72v324.608l-30.72 30.72h-79.872L542.72 602.112h-53.248zM357.376 391.168h67.584l26.624 15.36 64.512 116.736 64.512-116.736 26.624-15.36H675.84V128H358.4v263.168z" fill="#2c2c2c" p-id="4780"></path><path d="M455.68 207.872h120.832v120.832H455.68z" fill="#2c2c2c" p-id="4781"></path><path d="M641.024 957.44l-27.648-1.024-309.248-122.88L70.656 939.008 12.288 901.12V272.384l32.768-40.96 159.744-30.72 15.36 79.872-125.952 25.6v532.48l191.488-87.04 32.768-1.024 311.296 123.904 300.032-95.232V180.224l-108.544 18.432-14.336-80.896 156.672-26.624 48.128 39.936V808.96L983.04 848.896z" fill="#2c2c2c" p-id="4782"></path></svg>